<svg width="753.6" height="4.8in" viewBox="0 0 7536 4608" xmlns="http://www.w3.org/2000/svg"><path d="M6240.5 2782.6c-222.78-4.914-392.55 154.59-545.21 293.61-44.304-55.421-73.018-206.52-171.19-162.14-128.98 86.721-136.3 268.82-228.16 377.28-30.124-28.077 15.473-126.16-30.585-122.22-14.658 14.521-45.056 70.509-38.746 16.206 11.507-25.602-17.04-126.33-42.788-69.137.634 44.069 26.083 95.617-21.958 116.67 9.44 57.16-39.445 22.381-62.803 41 16.124 47.314 100.29 37.968 116.32 96.031 17.199 51.558 87.149 103.05 124.52 36.726 66.191-62.042 104.69-159.74 163.19-220.35 69.994 87.635 44.479 213.66-4.47 305.89-24.162 224.5-215.86 469.54-462.86 432.12-153.45-31.394-251.24-185.36-255.8-334.92-47.09-20.696-42.524 75.881-33.693 102.29 39.585 238.63 302.69 400.89 533.24 324.35 201.94-41.418 327.21-218.5 406.04-395.31 23.337-46.184 102.91-116.25 148.73-78.62-9.989 47.316-97.291 107.38-27.826 149.08 76.745 8.151 149.86 33.865 197.35 101.08 33.517.671-27.378-92.302 46.79-77.182 21.958-53.771 104.92-51.151 135.63-80.913-53.333 1.786-173.4 49.02-136.25-48.268-40.835-19.287-114.62 55.181-146.94 11.776 28.648-82.405 169.13-161.07 104.5-257-20.09-28.645-114.46-49.072-42.632-78.387 203.93-122.65 490.08-138.98 687.18 3.303 43.76 104.73 123.32 186.11 222.65 241.88 56.328 21.704 45.778 88.467 65.64 124.94 29.707-28.574 69.032-63.526 89.463-3.459 10.934 34.78 78.074 44.504 46.325-4.158-49.548-37.737 9.656-63.688 16.206-88.102-75.29 1.707 24.238-26.966 8.55-57.323-85.534-30.53-192.49-12.262-246.7-107.38-36.99-23.573-59.63-117.12 8.589-106.6 90.204 20.174 171.1 113.46 268.5 54.253 65.928-25.259 130.33-67.485 172.32-121.56-85.631-94.118-227.66-191.79-354.16-111.85-58.867 28.66-129.28-43.828-69.604-91.756 72.323-103.92 211.84-52.677 293.42 9.289 35.427-4.707-19.045-68.82 36.764-58.84 38.364 10.79 91.618-13.57 28.098-31.206-42.45-10.522-56.684-55.971-1.477-50.056 84.696-6.834-32.454-21.554-45.703-49.55-84.862-14.482-172.98 46.183-261.41 46.44-70.884 2.654-127.29 50.38-186.87 73.997-151.82-91.141-321.12-161.4-502.15-151.92z" fill="none"/><path d="M6240.5 2782.6c-222.78-4.914-392.55 154.59-545.21 293.61-44.304-55.421-73.018-206.52-171.19-162.14-128.98 86.721-136.3 268.82-228.16 377.28-30.124-28.077 15.473-126.16-30.585-122.22-14.658 14.521-45.056 70.509-38.746 16.206 11.507-25.602-17.04-126.33-42.788-69.137.634 44.069 26.083 95.617-21.958 116.67 9.44 57.16-39.445 22.381-62.803 41 16.124 47.314 100.29 37.968 116.32 96.031 17.199 51.558 87.149 103.05 124.52 36.726 66.191-62.042 104.69-159.74 163.19-220.35 69.994 87.635 44.479 213.66-4.47 305.89-24.162 224.5-215.86 469.54-462.86 432.12-153.45-31.394-251.24-185.36-255.8-334.92-47.09-20.696-42.524 75.881-33.693 102.29 39.585 238.63 302.69 400.89 533.24 324.35 201.94-41.418 327.21-218.5 406.04-395.31 23.337-46.184 102.91-116.25 148.73-78.62-9.989 47.316-97.291 107.38-27.826 149.08 76.745 8.151 149.86 33.865 197.35 101.08 33.517.671-27.378-92.302 46.79-77.182 21.958-53.771 104.92-51.151 135.63-80.913-53.333 1.786-173.4 49.02-136.25-48.268-40.835-19.287-114.62 55.181-146.94 11.776 28.648-82.405 169.13-161.07 104.5-257-20.09-28.645-114.46-49.072-42.632-78.387 203.93-122.65 490.08-138.98 687.18 3.303 43.76 104.73 123.32 186.11 222.65 241.88 56.328 21.704 45.778 88.467 65.64 124.94 29.707-28.574 69.032-63.526 89.463-3.459 10.934 34.78 78.074 44.504 46.325-4.158-49.548-37.737 9.656-63.688 16.206-88.102-75.29 1.707 24.238-26.966 8.55-57.323-85.534-30.53-192.49-12.262-246.7-107.38-36.99-23.573-59.63-117.12 8.589-106.6 90.204 20.174 171.1 113.46 268.5 54.253 65.928-25.259 130.33-67.485 172.32-121.56-85.631-94.118-227.66-191.79-354.16-111.85-58.867 28.66-129.28-43.828-69.604-91.756 72.323-103.92 211.84-52.677 293.42 9.289 35.427-4.707-19.045-68.82 36.764-58.84 38.364 10.79 91.618-13.57 28.098-31.206-42.45-10.522-56.684-55.971-1.477-50.056 84.696-6.834-32.454-21.554-45.703-49.55-84.862-14.482-172.98 46.183-261.41 46.44-70.884 2.654-127.29 50.38-186.87 73.997-151.82-91.141-321.12-161.4-502.15-151.92z" fill="none"/><path d="M5256 4531.2c-42.574-7.64-107.2-30.028-149.63-51.839-37.927-19.494-80.671-52.848-114.61-89.436-28.611-30.84-43.833-52.772-62.252-89.694-15.435-30.94-25.051-56.114-31.134-81.5-5.638-23.53-6.006-27.291-5.923-60.5.064-25.555.435-33.175 2.292-47 4.325-32.205 7.304-42.939 14.71-52.999 5.351-7.27 9.463-9.992 15.095-9.997 7.119-.01 12.882 6.616 15.369 17.66.599 2.66 1.716 21.71 2.482 42.336 1.51 40.663 2.466 48.74 8.084 68.33 7.71 26.886 28.349 73.476 43.708 98.67 18.853 30.924 52.005 64.738 86.184 87.905 39.67 26.89 79.238 43.19 124.5 51.29 16.576 2.966 45.804 3.19 62.998.484 80.23-12.628 143.73-39.408 199.44-84.11 19.79-15.88 47.82-44.88 65.798-68.07 25.06-32.329 53.38-81.349 66.612-115.3 2.812-7.215 8.301-23.599 12.2-36.408 3.897-12.809 8.692-27.338 10.654-32.288 4.856-12.25 14.71-31.742 22.69-44.879 8.159-13.433 8.309-15.117 2.145-24.12-6.437-9.401-8.772-17.548-8.745-30.502.026-12.49 2.966-23.886 9.304-36.069 5.12-9.84 15.618-22.873 23.903-29.675 15.808-12.977 14.786-11.802 16.999-19.55 1.131-3.964 5.92-17.782 10.64-30.707 8.667-23.73 10.089-28.965 9.022-33.217-.323-1.285-3.72-6.047-7.55-10.58-9.792-11.594-11.156-16.134-20.615-68.616-9.238-51.256-12.798-65.807-18.065-73.837-2.078-3.167-3.011-3.75-6.011-3.75-7.539 0-8.494 1.351-28.7 40.594-17.257 33.517-27.072 51.354-39.564 71.906-24.894 40.954-57.128 88.37-69.343 102-2.957 3.3-10.142 11.64-15.966 18.531-18.16 21.49-30.565 31.646-45.356 37.134-5.172 1.92-8.041 2.23-20.99 2.28-14.611.054-15.14-.019-20.416-2.796-14.657-7.715-26.01-25.094-48.112-73.649-14.01-30.776-18.81-40.064-24.328-47.067-8.648-10.976-21.232-16.628-47.644-21.399-26.5-4.786-32.8-7.25-40.736-15.935-11.167-12.218-11.301-28.89-.28-34.747 4.867-2.586 13.426-2.372 25.518.637 13.027 3.242 21.027 3.308 25.6.21 3.323-2.251 3.398-2.456 3.398-9.33 0-6.681-.203-7.296-4.102-12.448-2.257-2.981-13.364-14.958-24.685-26.615-11.321-11.657-22.837-24.404-25.592-28.327-6.69-9.525-9.589-18.143-9.607-28.556-.013-7.252.293-8.57 2.986-12.894 1.654-2.654 4.564-5.649 6.484-6.671 6.178-3.29 17.088-2.024 24.186 2.808 4.642 3.159 7.192 7.043 17.333 26.402 12.366 23.605 19.592 33.43 30.448 41.399 6.126 4.497 10.07 4.667 14.125.612 3.841-3.841 3.764-6.884-.468-18.371-5.16-14.004-6.085-17.258-12.576-44.206-7.014-29.115-7.546-35.706-3.575-44.237 8.837-18.98 32.052-23.117 46.006-8.2 2.573 2.751 5.604 7.094 6.735 9.652 2.256 5.099 2.18 7.97-.693 26.285-1.536 9.79-2.198 61.285-.873 67.91 1.29 6.446 8.145 11.116 14.118 9.617 6.757-1.696 15.77-15.833 22.652-35.532 3.573-10.226 5.788-13.54 10.735-16.064 8.977-4.58 19.702-.323 25.07 9.95 2.482 4.752 2.793 6.398 2.793 14.776 0 11.82-2.086 22.073-6.64 32.626-8.433 19.545-8.444 19.585-9.515 32.092-.57 6.669-.882 19.18-.691 27.802.31 14.03.566 15.974 2.44 18.5 3.793 5.114 12.516 6.332 19.556 2.73 4.1-2.096 9.377-8.883 14.244-18.313 5.673-10.992 9.117-19.667 18.102-45.594 4.003-11.55 13.564-37.875 21.248-58.5s16.828-45.6 20.321-55.5c4.931-13.975 9.953-25.156 22.461-50 34.747-69.022 40.85-80.034 55.29-99.788a64581.157 64581.157 0 0 0 24.812-33.967c14.626-20.042 19.29-24.631 30.81-30.312 13.867-6.84 26.112-9.646 42.564-9.756 16.072-.108 22.366 1.274 35.5 7.791 10.802 5.36 18.354 10.938 28.832 21.292 17.222 17.02 25.616 32.105 57.168 102.74 19.76 44.234 22.36 49.72 23.383 49.336.492-.184 6.908-7.078 14.256-15.319 147.23-165.1 291.5-252.3 457.36-276.42 30.152-4.385 43.31-5.298 83.693-5.812 55.621-.707 87.118 1.42 137.81 9.306 79.42 12.357 163.18 39.134 233 74.49 22.716 11.501 55.047 32.293 114.29 73.5 6.628 4.609 8.467 5.418 12.31 5.418h4.518l18.19-18.344c23.661-23.86 49.368-43.993 65.963-51.659 10.6-4.896 16.33-5.729 69.227-10.054 46.617-3.812 78.285-8.69 126.94-19.556 55.746-12.449 100.14-26.93 131.45-42.877 19.405-9.883 27.287-15.5 40.114-28.583 14.43-14.719 17.392-16.362 29.5-16.362 7.29 0 9.779.41 13.095 2.159 12.527 6.604 14.744 19.529 5.139 29.95-5.246 5.69-18.126 15.337-37.07 27.762-16.046 10.526-18.741 13.598-16.681 19.016 1.254 3.299 2.913 3.255 15.973-.421 12.903-3.632 26.414-6.031 33.97-6.031 4.612 0 6.67.603 11.079 3.25 9.851 5.913 14.997 15.616 14.997 28.282 0 10.656-3.973 18.317-12.255 23.63-6.914 4.437-13.081 4.785-26.745 1.509-20.65-4.95-29.546-5.787-37.193-3.496-4.82 1.444-8.807 5.944-8.807 9.94 0 4.149 3.355 10.27 6.386 11.65 5.2 2.37 22.555 4.75 48.79 6.692 20.93 1.55 24.921 2.707 31.278 9.064 5.058 5.058 7.499 10.735 7.514 17.478.022 9.76-6.496 19.825-15.186 23.449-6.998 2.919-13.03 2.034-40.282-5.908-36.187-10.546-40.774-11.31-44.42-7.397-2.563 2.75-4.457 11.854-3.624 17.411.754 5.025 3.292 9.02 12.274 19.318 10.203 11.7 11.2 16.411 5.747 27.171-5.786 11.42-12.442 15.486-24.174 14.772-3.776-.23-8.514-1.242-10.65-2.276-5.772-2.793-12.587-10.097-17.902-19.187-15.247-26.077-33.083-36.53-84.25-49.38-48.318-12.134-76.292-14.348-105.44-8.347-23.068 4.749-45.047 17.38-65.05 37.384-11.91 11.91-19.806 22.493-26.947 36.116-13.534 25.821-12.244 35.084 7.69 55.182 9.064 9.139 16.084 13.006 27.584 15.197 10.364 1.974 30.477 1.953 38.132-.041 3.24-.844 15.697-6.251 27.682-12.017 34.983-16.828 51.165-22.37 75.944-26.01 14.58-2.142 52.454-1.575 66.404.995 12.169 2.241 27.637 7.52 41.452 14.149 22.419 10.755 32.71 18.612 64.048 48.897 22.866 22.098 34.368 31.86 51.718 43.893 5.93 4.113 12.649 9.424 14.931 11.803 13.256 13.818 18.804 32.674 14.956 50.825-4.78 22.543-20.303 38.37-53.605 54.653-42.17 20.619-57.54 28.456-73.98 37.722-26.126 14.725-35.289 19.199-48.425 23.646-45.257 15.322-98.053 14.2-140.1-2.973-16.743-6.839-45.812-25.422-84.792-54.204-17.314-12.784-18.534-13.27-34.452-13.69-12.485-.33-21.212.388-35.971 2.958-7.86 1.369-8.682 2.657-8.535 13.388.207 15.091 5.486 33.191 15.751 54 24.822 50.318 67.453 89.83 119 110.29 31.981 12.695 69.122 18.07 126 18.235 22.204.064 40.558 1.434 44.158 3.295 4.683 2.421 11.137 10.065 11.89 14.08.883 4.706.013 7.96-3.857 14.44-4.101 6.87-8.451 9.387-21.69 12.559-11.877 2.844-28.925 8.22-36.766 11.593-6.073 2.613-7.483 5.45-4.767 9.596 3.58 5.464 20.731 9.906 81.032 20.985 24.101 4.428 37.025 8.76 46.866 15.703 6.127 4.324 8.452 16.136 4.766 24.221-4.69 10.291-12.576 15.625-24.08 16.291-7.568.438-8.118.298-37.617-9.6-56.084-18.82-75.937-23.627-82.752-20.04-3.202 1.685-3.524 2.61-2.51 7.2 1.277 5.778 5.545 11.838 20.438 29.02 28.544 32.933 34.043 41.135 33.112 49.391-1.366 12.118-17.248 19.901-33.288 16.311-9.15-2.047-16.11-7.447-23.4-18.157-12.194-17.912-33.602-45.064-44.85-56.885l-5.739-6.03-6.473.028c-5.603.024-7 .426-10.388 2.99-8.187 6.195-15.031 17.902-19.574 33.482-3.403 11.667-4.47 13.341-10.221 16.018-17.708 8.244-32.781-5.945-34.5-32.478-.499-7.691-.166-10.083 3.278-23.55 5.041-19.713 5.182-26.498.736-35.51-1.757-3.563-5.627-9.423-8.6-13.02-16.952-20.52-69.918-58.132-133.7-94.948-35.904-20.723-51.577-33.407-70.136-56.762-19.402-24.415-36.005-65.894-47.465-118.58-1.455-6.692-3.275-13.179-4.043-14.414-2.488-4-15.57-9.825-95.356-42.458-70.302-28.754-110.86-40.564-165.5-48.19-26.297-3.672-42.134-4.598-78.67-4.603-35.298 0-54.056.95-79.83 4.063-96.82 11.69-185.34 42.58-257 89.683-24.106 15.844-50 35.964-50 38.849 0 .77.338 1.41.75 1.423.413.012 6.15.444 12.75.958 48.421 3.775 84.547 35.862 92.108 81.812 2.849 17.314.209 38-6.599 51.707-1.639 3.3-9.223 13.773-16.852 23.274-7.63 9.501-19.674 25.64-26.764 35.863-21.78 31.406-28.191 39.323-53.329 65.863-29.568 31.216-34.995 40.231-28.891 47.991 4.034 5.129 8.858 6.463 23.448 6.488 29.5.049 47.953-5.955 82.378-26.801 31.497-19.073 36.42-21.26 44.468-19.75 4.346.815 10.345 5.874 12.184 10.275.743 1.778 1.351 5.66 1.351 8.626 0 6.84-1.465 9.03-15.168 22.672-12.167 12.112-15.727 17.585-16.535 25.417-.546 5.295-.43 5.65 2.967 9.047 3.146 3.145 4.114 3.536 8.758 3.536 13.994 0 36.237-4.914 65.978-14.578 16.847-5.474 17.99-5.704 30.61-6.166 14.97-.548 21.297.72 28.07 5.626 5.632 4.08 9.32 11.736 9.32 19.346 0 6.891-1.554 11.056-6.03 16.153-7.076 8.06-11.939 9.016-53.97 10.621-34.63 1.323-50 3.748-62 9.782-4.841 2.435-5.538 3.169-5.823 6.126-.287 2.983.386 4.052 6.004 9.534 8.742 8.53 17.536 13.454 41.165 23.052 23.76 9.651 23.64 9.592 28.815 14.267 5.44 4.914 7.844 9.973 7.817 16.446-.043 10.3-5.462 17.024-16.365 20.306-8.93 2.687-16.673-.934-45.113-21.098-33.713-23.903-47.054-31.504-56.54-32.214-7.02-.525-8.422.892-8.314 8.4.165 11.432 2.168 17.092 13.895 39.277 5.668 10.72 2.791 20.283-7.67 25.496-3.793 1.89-6.813 2.62-10.816 2.613-13.211-.023-24.312-9.555-41.908-35.981-17.091-25.668-28.321-35.98-49.24-45.211-18.403-8.122-37.915-11.586-83.406-14.809-34.378-2.436-40.354-3.263-47.096-6.523-6.931-3.35-15.724-12.81-19.69-21.18-2.878-6.078-3.214-7.728-3.214-15.788 0-6.342.543-10.407 1.838-13.765 2.262-5.86 14.314-23.162 33.603-48.235 25.891-33.655 33.012-45.243 33.847-55.083.423-4.975.36-5.112-2.928-6.475-5.774-2.394-10.18-1.62-17.338 3.044-9.164 5.97-16.758 8.785-31.352 11.618-40.075 7.78-47.47 10.438-59.36 21.332-16.31 14.945-28.646 36.288-61.31 106.06-50.497 107.88-83.161 159.02-135.94 212.86-80.13 81.74-186.06 132.71-310.94 149.6-43.215 5.848-88.37 7.293-109.48 3.504z" fill="#f60"/><path d="M456 4531.2c-48.019-5.899-135.16-36.584-178.62-62.896-33.949-20.555-68.303-48.836-98.465-81.057-27.892-29.797-46.701-57.523-64.897-95.664-18.499-38.775-28.226-68.771-32.662-100.71-1.942-13.981-1.664-54.89.495-73 3.54-29.697 6.491-44.954 10.168-52.57 3.763-7.796 10.16-15.695 14.547-17.963 6.397-3.308 13.379-.978 17.344 5.79 5.191 8.86 5.786 13.533 6.651 52.244.843 37.697 1.577 44.666 6.876 65.301 6.972 27.148 31.34 82.077 47.112 106.2 49.556 75.79 140.39 130.72 228.45 138.15 15.105 1.275 30.38.207 53.5-3.74 132.64-22.649 227.69-91.239 296.43-213.91 17.485-31.204 27.734-55.379 36.46-86 3.29-11.55 7.612-25.276 9.604-30.5 5.295-13.894 16.539-36.71 22.895-46.46 10.132-15.546 10.628-17.82 5.254-24.11-16.59-19.422-13.762-54.14 6.632-81.43 6.724-9 15.764-17.929 23.347-23.065 7.744-5.245 7.712-5.197 10.363-15.452 1.73-6.692 6.954-21.36 15.91-44.67 2.258-5.877 4.105-12.34 4.105-14.36 0-3.784-3.076-8.34-12.122-17.954-5.796-6.16-9.004-18.995-18.87-75.5-6.98-39.975-11.367-56.848-16.547-63.64-2.026-2.657-3.277-3.36-5.977-3.36-6.543 0-9.328 3.849-24.152 33.375-21.976 43.77-38.066 72.094-62.493 110.01-18.607 28.882-43 63.907-47.787 68.615-2.516 2.475-9.511 10.575-15.544 18-13.29 16.356-23.36 26.42-32.556 32.532-13.275 8.825-24.227 11.917-40.026 11.301-8.63-.336-11.416-.864-16.178-3.065-15.765-7.287-28.181-26.415-51.777-79.767-11.57-26.157-17.178-36.712-22.955-43.194-9.296-10.43-20.001-15.124-44.015-19.302-28.43-4.947-34.904-7.242-42.517-15.075-5.525-5.685-8.542-11.982-9.196-19.197-.657-7.248 1.207-11.983 6.226-15.811 5.439-4.148 13.463-4.478 25.431-1.045 16.254 4.662 23.486 4.656 29.05-.026 2.594-2.182 3.005-3.205 3.005-7.473 0-9.088-3.054-13.252-27.416-37.378-27.33-27.065-33.99-36.338-37.218-51.82-2.357-11.308.303-21.037 7.188-26.288 3.355-2.56 4.604-2.891 10.869-2.891 8.56 0 15.016 2.863 20.276 8.991 1.892 2.205 7.243 11.734 11.89 21.176 11.134 22.616 19.5 33.996 31.545 42.905 5.532 4.092 8.67 4.306 12.755.868 4.86-4.09 4.887-7.451.156-19.325-4.536-11.386-6.743-18.976-10.501-36.114-1.387-6.325-3.912-16.675-5.611-23-4.864-18.106-3.572-27.168 5.35-37.508 12.302-14.258 35.252-11.511 45.426 5.437 4.51 7.515 4.854 11.533 2.146 25.077-2.097 10.484-2.302 14.218-2.327 42.494-.027 29.352.08 31.186 2 34.5 2.83 4.886 7.922 7.266 12.714 5.943 7.461-2.06 15.472-13.954 21.18-31.443 4.203-12.884 6.372-16.794 10.82-19.506 10.116-6.17 22.417-1.189 27.766 11.247 2.03 4.72 2.197 6.336 1.721 16.742-.6 13.143-2.517 20.294-9.38 34.996-6.963 14.913-7.24 16.538-7.493 44.022-.242 26.137-.094 27.094 4.773 30.922 3.761 2.959 12.546 2.87 17.58-.178 9.47-5.733 19.374-25.732 32.329-65.285 3.97-12.122 11.738-33.497 17.262-47.5 5.523-14.003 13.648-36.034 18.054-48.96 9.738-28.562 14.8-40.8 24.775-59.877 4.204-8.042 15.594-30.147 25.31-49.122s19.256-36.975 21.198-40 10.267-14.5 18.499-25.5c8.231-11 18.678-25.271 23.213-31.712 9.395-13.345 14.488-18.142 25.2-23.737 19.25-10.053 47.117-13.214 66.59-7.553 19.709 5.729 43.35 24.526 57.235 45.503 8.069 12.19 24.812 46.149 39.69 80.5 6.432 14.85 13.157 29.925 14.945 33.5s4.542 9.525 6.12 13.223c1.58 3.697 3.113 6.735 3.408 6.75.295.014 4.345-4.352 9-9.703 22.03-25.327 58.213-62.868 83.333-86.458 134.45-126.26 268.37-189.55 426.13-201.39 26.901-2.018 88.296-1.475 114.5 1.012 71.402 6.777 130.08 19 192.98 40.199 43.026 14.5 87.864 33.844 118.52 51.128 11.626 6.555 75.89 49.385 90.338 60.207 13.697 10.26 17.188 11.533 23.462 8.555 2.13-1.01 5.68-4.462 8.767-8.522 2.853-3.754 7.105-8.26 9.447-10.016 2.343-1.755 5.197-4.46 6.343-6.01 5.176-7 39.774-34.32 52.422-41.393 13.276-7.424 20.72-8.953 56.414-11.587 53.256-3.929 76.988-6.953 117.81-15.014 95.282-18.814 165.05-44.307 193.6-70.742 3.337-3.09 8.062-8.209 10.499-11.377 6.317-8.21 14.85-12.368 25.378-12.368 14.47 0 24.32 7.608 24.295 18.765-.02 8.951-1.827 11.573-15.455 22.416-6.787 5.4-18.572 13.637-26.187 18.302-15.456 9.47-18.632 12.472-18.632 17.618 0 5.586 3.234 6.142 14.4 2.476 9.869-3.24 20.994-5.524 32.249-6.62 6.336-.617 7.76-.417 12.506 1.757 10.433 4.776 16.721 14.335 17.611 26.767.97 13.56-4.454 23.3-16.12 28.948-5.749 2.783-11.104 2.527-24.74-1.182-23.433-6.373-38.615-5.59-43.235 2.231-2.136 3.617-2.08 5.525.318 10.81 1.36 2.996 2.94 4.702 5.248 5.666 5.593 2.337 30.369 5.635 48.763 6.491 14.134.658 18.385 1.203 22.103 2.836 13.252 5.82 19.832 19.243 15.453 31.52-2.107 5.906-6.521 11.598-10.986 14.166-8.636 4.966-15.868 4.33-40.32-3.552-8.386-2.703-16.093-4.915-17.126-4.915-1.033 0-6.264-1.35-11.624-3-14.782-4.55-18.058-4.048-20.98 3.22-2.145 5.336-2.28 14.148-.29 18.843.831 1.959 5.057 7.509 9.39 12.333 9.461 10.53 10.734 12.74 10.751 18.65.02 7.101-6.535 18.543-12.863 22.45-4.366 2.697-5.683 3-12.935 2.976-6.452-.022-8.947-.488-12.423-2.321-6.978-3.68-12.506-9.523-17.119-18.093-15.575-28.937-37.46-40.463-105.5-55.56-52.176-11.576-90.214-7.994-122.03 11.49-26.569 16.272-49.123 42.328-60.01 69.329-5.94 14.727-5.742 19.315 1.338 31.182 4.469 7.49 17.126 20.127 23.72 23.682 8.242 4.444 23.686 7.078 38.452 6.56 15.246-.537 16.327-.89 43.5-14.233 28.892-14.186 41.193-18.828 62-23.394 15.29-3.356 28.335-4.378 49.332-3.865 29.412.718 47.333 4.88 71.79 16.67 23.36 11.26 34.44 19.807 65.377 50.427 21.543 21.322 33.04 30.97 52 43.637 11.186 7.473 13.963 10.052 19.231 17.858 7.62 11.293 10.208 19.342 10.18 31.658-.04 17.013-4.913 28.755-17.358 41.818-10.78 11.317-25.299 20.392-49.052 30.663-15.069 6.515-50.968 25.02-68.994 35.563-10.172 5.95-22.334 12.483-27.027 14.518-51.956 22.535-116.6 21.849-164.81-1.749-12.882-6.305-55.68-35.03-80.134-53.781-4.656-3.57-10.506-7.228-13-8.127-7.63-2.751-24.38-2.96-41.25-.514-8.067 1.17-15.307 2.372-16.09 2.672-6.411 2.46-4.146 26.394 4.654 49.18 24.861 64.368 80.27 115.32 145.85 134.12 29.95 8.586 51.852 10.902 110.8 11.717 36.997.511 39.354.906 46.504 7.781 7.59 7.298 8 15.004 1.335 25.066-4.65 7.022-7.986 8.778-21.839 11.5-3.025.593-13.287 3.605-22.804 6.693-13.038 4.229-17.667 6.166-18.776 7.86-1.706 2.604-.816 5.966 2.33 8.8 4.096 3.687 35.604 11.3 71.352 17.238 11.77 1.955 24.774 4.485 28.9 5.622 8.898 2.452 20.991 7.851 25.796 11.516 9.902 7.553 9.213 23.349-1.462 33.48-5.533 5.252-9.905 7.124-17.835 7.635-6.386.412-8.186.036-20.5-4.281-41.31-14.484-74.596-24.567-87.653-26.553-6.81-1.036-8.36-.978-11.727.436-3.797 1.595-3.87 1.723-3.393 5.952.635 5.637 5.042 12.362 17.381 26.527a52164.1 52164.1 0 0 1 18.28 21c4.614 5.305 10.536 12.903 13.161 16.886 7.691 11.672 7.576 18.662-.43 26.041-11.257 10.377-30.382 9.255-43.581-2.557-2.29-2.049-6.947-8.337-10.35-13.973-5.742-9.51-30.503-40.624-42.31-53.166-4.904-5.211-5.368-5.457-11-5.845-5.28-.363-6.358-.084-10.597 2.75-8.602 5.752-16.148 18.499-20.21 34.139-1.303 5.017-3.228 10.272-4.277 11.678-4.898 6.56-16.8 8.667-24.948 4.416-8.197-4.275-12.945-13.134-15.364-28.66-1.406-9.023-.63-15.329 3.76-30.565 5.79-20.092 4.894-27.347-5.113-41.37-7.343-10.29-24.232-25.263-47.13-41.78-23.188-16.726-65.634-43.752-90-57.304-27.381-15.228-41.865-25.899-58.071-42.783-5.461-5.689-12.963-14.6-16.67-19.804-8.632-12.112-20.333-35.698-26.274-52.96-6.23-18.099-16.096-54.095-17.547-64.017-.737-5.036-1.91-8.948-3.158-10.536-2.738-3.48-12.051-7.984-40.187-19.436-13.251-5.393-36.467-14.964-51.592-21.268-69.191-28.839-111.95-41.564-165.29-49.192-27.388-3.916-37.213-4.639-71.284-5.242-44.795-.793-81.244 1.798-121.93 8.669-62.213 10.506-116.54 27.468-168 52.458-32.937 15.993-55.97 30.018-85.066 51.8-17.087 12.79-24.03 18.992-23.046 20.582.454.735 3.493 1.182 8.04 1.182 14.8 0 31.722 4.1 45.974 11.135 40.517 20.003 61.364 66.021 49.972 110.31-3.363 13.074-5.879 17.038-26.492 41.733-4.74 5.679-14.309 18.65-21.265 28.824s-15.325 22.325-18.597 27c-3.272 4.675-15.978 19.23-28.235 32.344-29.067 31.101-33.368 36.103-36.443 42.388-3.285 6.714-2.686 10.88 2.176 15.15 5.193 4.559 9.942 5.435 25.982 4.794 15.192-.607 24.144-2.206 37.838-6.759 13.67-4.545 21.674-8.615 42.194-21.455 31.209-19.529 37.085-21.762 45.958-17.467 6.084 2.946 9.71 8.388 10.296 15.453.708 8.54-.896 11.61-10.547 20.197-15.475 13.768-21.562 22.672-21.603 31.6-.018 3.876.502 5.291 2.846 7.737 3.889 4.06 7.167 4.453 21.096 2.534 16.897-2.329 29.988-5.6 52.92-13.225 18.343-6.1 20.857-6.687 30.322-7.087 17.093-.722 26.892 2.139 33.41 9.754 9.993 11.674 6.564 29.937-7.007 37.324-6.84 3.723-14.895 4.702-38.73 4.711-31.05.011-57.274 3.632-70.25 9.7-9.448 4.419-9.402 8.124.212 17.118 8.784 8.217 17.228 13.02 35.56 20.226 24.824 9.76 27.406 10.933 32.576 14.804 8.532 6.388 11.681 16.78 7.86 25.927-2.157 5.16-5.132 8.109-10.952 10.854-11.993 5.655-18.3 3.027-52.86-22.034-27.31-19.802-43.96-29.307-53.16-30.344-6.34-.715-8.487 1.355-8.464 8.16.04 11.478 4.357 24.365 11.868 35.427 8.057 11.863 7.03 22.177-2.878 28.92-15.217 10.356-33.435 1.417-50.443-24.752-15.434-23.747-18.025-27.225-25.48-34.206-17.693-16.568-40.416-25.713-75.084-30.217-6.325-.822-22.975-2.183-37-3.024-42.865-2.571-47.11-3.631-57.606-14.38-13.014-13.33-16.74-31.709-9.297-45.859 3.889-7.393 16.697-25.386 30.832-43.314 25.61-32.482 34.633-46.937 35.808-57.367.512-4.54.454-4.654-3.076-6.13-6.215-2.596-10.686-1.966-16.75 2.36-11.357 8.106-16.55 9.833-44.037 14.645-27.623 4.835-36.032 8.189-47.763 19.05-16.71 15.47-29.415 37.687-62.984 110.14-28.754 62.062-49.953 100.91-74.653 136.8-70.99 103.16-165.3 169.99-289.97 205.46-35.2 10.014-83.017 17.955-126.5 21.007-13.642.957-44.888 1.18-51.5.369z" fill="#3771c8"/><path d="M2922.2 1330.4c-40.468-6.338-108.5-29.24-152.28-51.263-65.171-32.786-134.73-98.524-169.19-159.9-24.715-44.015-43.075-94.296-46.992-128.69-1.33-11.676-1.328-53.741 0-68.5 1.53-16.977 5.541-40.583 8.47-49.857 2.908-9.201 9.393-19.476 14.452-22.893 4.02-2.716 10.954-3.004 14.61-.608 3.03 1.985 6.877 8.4 8.316 13.865.58 2.204 1.74 18.854 2.578 37 1.993 43.165 3.034 53.37 7.04 69.056 7.667 30.017 31.076 83.063 48.353 109.57 49.67 76.208 148 133.8 233.14 136.54 19.513.629 31.562-.328 52.5-4.17 40.993-7.522 77.042-19.037 111.21-35.525 51.905-25.044 92.728-57.776 132.81-106.49 20.922-25.426 45.722-65.01 62.464-99.702 8.684-17.993 12.12-27.03 21.516-56.584 4.147-13.04 8.945-27.535 10.663-32.21 3.72-10.123 15.217-33.381 23.724-47.995 7.601-13.058 7.71-14.795 1.556-25.005-6.365-10.56-7.88-16.262-7.837-29.5.083-25.804 12.656-49.233 37.224-69.363 4.907-4.021 9.419-8.284 10.026-9.474s4.077-10.713 7.711-21.163c17.66-50.781 17.09-46.8 8.328-58.118-11.114-14.357-12.022-17.267-21.884-70.117-10.034-53.772-12.556-64.236-17.571-72.9-4.113-7.107-11.143-6.569-16.532 1.264-1.671 2.429-9.814 17.343-18.096 33.143-32.552 62.1-55.701 100.54-88.564 147.06-13.744 19.456-15.151 21.242-33.218 42.167-21.751 25.192-32.099 34.204-46.315 40.333-7.067 3.047-7.554 3.113-23.218 3.14-15.088.026-16.277-.114-20.855-2.452-14.09-7.197-25.901-25.215-48.171-73.488-21.243-46.047-24.993-51.7-38.996-58.792-7.427-3.76-15.803-6.286-30.678-9.247-28.787-5.731-34.094-7.682-41.721-15.335-11.838-11.878-12.931-29.12-2.244-35.41 4.028-2.37 15.199-2.263 26.165.25 10.858 2.49 21.646 2.623 25.028.309 3.65-2.498 3.94-3.229 3.957-9.958.014-5.574-.339-6.621-3.77-11.187-2.081-2.77-11.249-12.893-20.37-22.495-30.565-32.17-35.195-38.237-38.312-50.203-3.422-13.14-1.462-22.807 5.943-29.31 3.192-2.803 4.276-3.155 9.693-3.155 14.55 0 20.324 4.938 32.197 27.532 9.392 17.872 18.861 32.428 24.801 38.122 10.048 9.632 16.297 11.61 21.197 6.71 3.708-3.709 3.43-7.983-1.396-21.454-2.217-6.19-5.841-18.455-8.053-27.253-9.975-39.672-11.074-49.463-6.553-58.384 5.288-10.434 12.902-15.455 24.403-16.09 6.325-.35 7.972-.057 12.724 2.269 8.953 4.38 16.511 14.996 16.511 23.19 0 2.206-.699 8.927-1.554 14.935-1.083 7.616-1.613 20.158-1.75 41.424-.182 28.316-.06 30.723 1.69 33.614 2.412 3.984 6.497 6.385 10.863 6.385 6.866 0 14.392-10.344 23.126-31.784 2.95-7.244 6.065-14.239 6.92-15.544 3.341-5.099 14.482-7.412 20.504-4.257 3.932 2.06 8.868 7.53 10.65 11.803 2.039 4.887 2.042 22.075.01 30.713-.833 3.536-4.02 12.71-7.08 20.384-3.06 7.674-5.971 16.706-6.468 20.07-.498 3.363-.927 15.658-.955 27.32-.056 23.762.402 25.812 6.406 28.66 7.712 3.66 16.198.816 22.432-7.519 7.788-10.414 12.135-20.468 28.25-65.346 21.364-59.498 42.878-117.3 47.47-127.55 5.93-13.228 33.783-68.509 44.865-89.047 10.987-20.362 15.862-27.81 38.355-58.613 23.648-32.382 29.646-38.702 42.522-44.8 15.28-7.239 22.404-8.748 41.75-8.844 14.758-.074 17.176.158 22.899 2.195 8.292 2.953 17.098 7.418 24.6 12.474 9.269 6.247 25.3 22.915 32.397 33.682 7.747 11.755 21.63 39.782 40.125 81 18.35 40.897 23.114 51 24.047 51 .42 0 9.69-9.785 20.599-21.745 83.86-91.942 158.94-153.81 241.96-199.36 79.09-43.4 168.73-69.798 254.77-75.026 21.264-1.292 103.8-.57 120.1 1.05 76.457 7.598 147.41 23.912 215.28 49.501 25.374 9.566 39.378 15.644 64.717 28.088 29.062 14.272 53.89 29.663 106.5 66.014 23.555 16.275 23.12 16.02 28.746 16.951l4.245.703 8.594-9.035c25.03-26.316 55.897-51.363 75.293-61.096 10.241-5.14 13.698-5.638 80.122-11.547 31.438-2.797 54.712-6.1 85.5-12.133 70.69-13.853 125.74-30.658 163.42-49.883 17.965-9.167 23.849-13.338 38.447-27.256 7.122-6.79 14.79-13.292 17.04-14.45 5.097-2.623 17.584-3.575 23.21-1.771 8.443 2.707 14.391 10.036 14.372 17.707-.023 9.282-7.317 16.712-34.991 35.643-19.245 13.165-25 18.033-25 21.147 0 6.358 2.316 6.793 16.35 3.075 22.191-5.879 36.738-7.109 43.44-3.673 5.086 2.607 10.728 8.484 13.438 13.998 3.382 6.879 3.744 19.968.746 26.938-2.472 5.745-8.008 11.294-13.702 13.73-4.956 2.123-14.952 1.427-30.272-2.105-21.54-4.967-33.308-3.45-37.344 4.81-1.829 3.744-1.825 3.815.5 8.5 1.602 3.23 3.452 5.261 5.844 6.416 4.36 2.107 18.99 4.259 43 6.326 26.406 2.274 29.406 3.115 36.201 10.151 4.762 4.93 6.81 9.949 6.755 16.55-.083 10.004-5.343 18.855-13.575 22.84-7.105 3.44-15.232 2.352-44.702-5.979-13.651-3.859-27.562-7.513-30.913-8.12-5.471-.993-6.356-.91-8.68.812-3.308 2.452-4.959 7.216-5.03 14.52-.07 7.183 1.627 10.618 10.452 21.16 11.153 13.324 12.46 17.778 8.02 27.316-5.437 11.679-11.582 16.234-21.902 16.234-13.843 0-20.424-4.606-32.223-22.55-7.992-12.153-18.363-22.781-27.527-28.208-15.188-8.996-48.876-19.37-86.377-26.602-34.223-6.6-62.462-6.138-85.966 1.405-35.059 11.251-69.814 43.706-85.74 80.066-2.862 6.532-3.24 8.448-3.265 16.527l-.028 9.139 4.733 6.93c5.572 8.16 16.372 18.846 22.876 22.633 2.535 1.476 8.297 3.617 12.805 4.757 7.014 1.774 10.53 2.021 24.39 1.72l16.196-.354 9.5-4.138c5.225-2.276 18.298-8.19 29.05-13.143 21.802-10.041 38.27-15.957 53.95-19.382 9.644-2.107 12.946-2.294 40.5-2.297 20.673 0 32.172.407 36.986 1.317 11.442 2.162 28.17 7.971 42.014 14.59 22.164 10.597 30.279 16.754 64 48.557 25.359 23.917 32.95 30.413 48.814 41.777 15.18 10.874 22.176 17.85 26.862 26.788 7.233 13.796 8.714 27.714 4.5 42.267-3.097 10.69-7.63 17.909-16.677 26.55-10.812 10.328-17.819 14.555-54.786 33.045-18.2 9.103-42.456 21.68-53.903 27.95-35.096 19.223-42.564 22.573-61.538 27.61-20.466 5.433-29.073 6.457-54.274 6.457-24.64 0-32.668-.916-52-5.93-12.66-3.283-24.657-8.068-36.615-14.603-12.2-6.67-41.797-26.29-63.885-42.355-9.625-7-19.3-13.653-21.5-14.785-7.183-3.694-32.802-4.031-51.929-.683-9.433 1.651-11.57 3.825-11.57 11.77 0 15.333 5.344 34.006 15.934 55.675 30.794 63.007 89.915 108.72 157.6 121.86 21.273 4.13 38.075 5.628 74.967 6.684 40.004 1.145 53.012 2.135 57.311 4.358 1.667.862 4.696 3.6 6.733 6.085 4.839 5.906 5.622 11.473 2.516 17.888-4.938 10.201-8.662 12.486-29.364 18.014-16.305 4.354-32.384 10.02-34.902 12.297-2.36 2.137-2.279 5.829.183 8.291 4.52 4.52 15.834 7.53 64.215 17.085 19.081 3.768 39.03 8.29 44.333 10.048 12.822 4.252 20.625 9.308 22.817 14.785 5.25 13.12-2.23 28.592-15.773 32.632-10.048 2.998-14.272 2.251-45.858-8.112-71.562-23.478-87.582-25.913-85.149-12.944.993 5.293 6.286 12.704 23.617 33.063 24.222 28.455 29.822 36.726 29.822 44.044 0 7.493-7.057 15.006-16.49 17.556-6.062 1.639-18.214.605-23.233-1.977-6.786-3.49-10.648-7.51-21.139-22.002-12.523-17.298-27.842-36.614-38.204-48.17-7.718-8.609-8.235-8.988-12.246-8.982-7.58.01-11.18 1.677-16.852 7.806-6.777 7.323-10.83 14.957-15.312 28.842-3.778 11.704-5.52 14.194-11.755 16.8-10.627 4.44-21.802-.478-27.663-12.173-5.96-11.892-6.6-25.416-2.097-44.28 5.565-23.307 5.116-29.309-3.147-42.094-12.869-19.91-57.116-53.012-124.36-93.033-31.655-18.84-49.427-30.57-59.801-39.47-11.536-9.899-26.814-27.91-34.538-40.716-13.099-21.717-25.715-55.579-35.092-94.187-2.805-11.55-5.5-21.94-5.99-23.089-1.67-3.925-15.849-10.469-76.978-35.53-88.773-36.397-127.12-48.018-184.1-55.798-51.866-7.081-120.93-6.324-177 1.942-102.06 15.045-192.74 51.365-265.94 106.52-15.355 11.569-23.546 18.867-22.704 20.228.315.51 5.13 1.225 10.697 1.59 18.864 1.236 34.908 6.03 50.44 15.071 9.503 5.532 25.916 21.857 31.455 31.287 12.001 20.431 16.486 44.09 12.586 66.403-3 17.174-5.126 21.117-25.594 47.483-6.448 8.306-19.062 25.39-28.03 37.963-18.929 26.535-26.52 35.82-49.184 60.153-19.679 21.128-26.183 29.058-29.35 35.782-2.876 6.104-2.908 7.116-.351 11.308 3.524 5.78 8.3 7.145 25.095 7.17 30.075.045 45.442-5.12 85.056-28.592 24.025-14.235 29.252-16.706 36.325-17.17 5.396-.354 6.41-.095 10.08 2.58 2.245 1.634 4.833 4.555 5.75 6.49 1.832 3.86 2.208 12.17.727 16.065-.52 1.364-6.35 8.17-12.956 15.126-13.133 13.824-16.992 20.039-17.335 27.916-.19 4.336.13 5.124 3.164 7.836l3.375 3.016 10.598-.486c12.5-.573 27.876-3.89 51.098-11.024 29.005-8.91 28.838-8.879 45-8.519 12.865.287 14.993.584 18.876 2.639 8.795 4.652 13.066 11.802 13.102 21.928.027 7.743-1.621 11.86-6.835 17.075-6.705 6.704-11.658 7.52-61.643 10.15-29.836 1.57-40.74 3.463-52.25 9.072-5.974 2.911-6.25 3.208-6.25 6.707 0 3.177.8 4.422 6.063 9.43 9.668 9.2 15.874 12.425 56.2 29.206 13.611 5.664 19.813 12.475 20.542 22.563.23 3.192-.106 7.396-.749 9.343-1.66 5.033-7.904 10.281-14.515 12.203-9.954 2.894-14.686.65-49.467-23.454-33.77-23.404-44.149-29.01-53.789-29.054-6.183-.028-7.285 1.288-7.285 8.7 0 7.629 2.554 15.715 9.495 30.058 7.165 14.808 8.213 18.544 6.585 23.476-3.646 11.049-19.353 16.088-31.917 10.239-6.942-3.232-15.854-12.266-25.15-25.496-14.535-20.684-17.545-24.601-24.48-31.862-17.824-18.66-41.207-28.282-79.218-32.601-7.048-.801-24.74-2.396-39.315-3.545-27.704-2.184-37.573-3.687-43.159-6.572-5.142-2.656-13.957-12.264-17.84-19.447-3.396-6.28-3.5-6.801-3.5-17.473 0-9.682.286-11.539 2.393-15.5 3.964-7.452 11.363-17.955 30.825-43.75 28.915-38.324 35.282-48.914 35.282-58.684 0-4.18-.19-4.474-3.608-5.602-5.19-1.713-9.514-.666-18.218 4.41-10.03 5.848-16.17 7.811-39.567 12.654-31.291 6.475-38.698 9.512-50.796 20.83-15.224 14.24-27.123 35.253-63.793 112.64-49.446 104.35-82.266 154.8-135.01 207.5-85.653 85.593-194.62 134.84-331.01 149.59-13.956 1.51-73.755 2.819-80.5 1.762z" fill="#d4aa00"/><path d="M4182.4 3858.23l73.607-87.74h-1250v-39.244h1250l-75.412-89.385c-64.606-76.576-73.57-88.759-62.562-85.02 7.067 2.4 135.46 45.798 285.32 96.439 149.86 50.641 274.68 93.481 277.37 95.201 3.593 2.292-511.71 180.67-564.58 195.43-4.05 1.131 25.759-37.427 66.243-85.684zM5672 1924.2c-1.73.999-1.953.957-2.81-.526-.855-1.483-1.078-1.524-2.809-.526-1.73 1-1.953.958-2.809-.525s-1.079-1.525-2.81-.526c-1.646.95-1.974.919-2.653-.258-.68-1.176-1.008-1.208-2.655-.257-1.73.999-1.953.957-2.809-.526s-1.08-1.524-2.81-.525c-1.73.998-1.952.957-2.808-.526-.857-1.483-1.08-1.525-2.81-.526-1.73.999-1.953.957-2.809-.526-.856-1.483-1.08-1.525-2.81-.526-1.73 1-1.952.957-2.808-.525-.857-1.483-1.08-1.525-2.81-.526-1.73.999-1.953.957-2.81-.526s-1.078-1.525-2.808-.526-1.953.957-2.81-.526c-.856-1.483-1.079-1.524-2.809-.526-1.73 1-1.953.958-2.81-.525s-1.078-1.525-2.808-.526c-1.73.999-1.954.957-2.81-.526-.856-1.483-1.079-1.525-2.809-.526-1.73 1-1.953.957-2.81-.526-.855-1.483-1.078-1.524-2.809-.525-1.73.998-1.953.957-2.809-.526-.856-1.483-1.079-1.525-2.81-.526-1.73.999-1.952.957-2.808-.526-.879-1.521-1.05-1.542-3.078-.37-2.029 1.17-2.2 1.15-3.078-.371-.856-1.483-1.08-1.525-2.81-.526s-1.952.957-2.808-.526c-.857-1.483-1.08-1.525-2.81-.526-1.73.999-1.953.957-2.809-.526-.856-1.483-1.08-1.524-2.81-.525-1.73.998-1.952.957-2.808-.526-.857-1.483-1.08-1.525-2.81-.526s-1.953.957-2.81-.526c-.855-1.483-1.078-1.525-2.808-.526-1.647.95-1.976.92-2.655-.257-.679-1.176-1.007-1.208-2.654-.257-1.73.998-1.953.957-2.81-.526-.855-1.483-1.078-1.525-2.808-.526-1.73.999-1.954.957-2.81-.526-.856-1.483-1.079-1.524-2.809-.526-1.73 1-1.953.958-2.81-.525-.855-1.483-1.078-1.525-2.809-.526-1.73.999-1.953.957-2.809-.526-.856-1.483-1.079-1.525-2.81-.526s-1.952.957-2.808-.526c-.857-1.483-1.08-1.524-2.81-.525-1.73.998-1.953.957-2.809-.526-.856-1.483-1.08-1.525-2.81-.526-1.73.999-1.952.957-2.808-.526-.857-1.483-1.08-1.525-2.81-.526s-1.953.958-2.809-.525c-.856-1.483-1.08-1.525-2.81-.526-1.73.999-1.952.957-2.809-.526-.856-1.483-1.079-1.525-2.809-.526-1.73.999-1.953.957-2.81-.526-.855-1.483-1.078-1.524-2.808-.526-1.73 1-1.953.958-2.81-.525s-1.079-1.525-2.809-.526c-1.73.999-1.953.957-2.81-.526-.855-1.483-1.078-1.525-2.808-.526s-1.954.957-2.81-.526-1.079-1.524-2.81-.525c-1.73.998-1.952.957-2.808-.526-.856-1.483-1.08-1.525-2.81-.526-1.73.999-1.953.957-2.809-.526-.856-1.483-1.079-1.524-2.81-.526-1.646.951-1.974.92-2.653-.257-.68-1.176-1.008-1.208-2.655-.257-1.73.999-1.953.957-2.809-.526-.856-1.483-1.08-1.525-2.81-.526-1.73.999-1.952.957-2.809-.526-.856-1.483-1.079-1.524-2.809-.526-1.73 1-1.953.958-2.81-.525s-1.078-1.525-2.808-.526l-1.88 1.085 312.02 540.43 312.02 540.43-17.182 9.92-17.182 9.92-312.02-540.43-312.02-540.43-1.879 1.085c-1.73.999-1.805 1.213-.95 2.696s.782 1.697-.948 2.695c-1.73 1-1.806 1.213-.95 2.696.857 1.483.781 1.697-.949 2.696-1.73.999-1.805 1.213-.95 2.696.857 1.483.782 1.697-.948 2.696-1.647.95-1.784 1.25-1.105 2.427.68 1.176.543 1.477-1.104 2.427-1.73 1-1.805 1.213-.95 2.696.857 1.483.782 1.697-.948 2.696-1.73.999-1.806 1.213-.95 2.696.856 1.483.781 1.697-.95 2.696-1.73.998-1.805 1.212-.948 2.695s.78 1.697-.95 2.696-1.805 1.213-.949 2.696.78 1.697-.95 2.696-1.805 1.213-.948 2.696.78 1.697-.95 2.695c-1.73 1-1.805 1.213-.949 2.696s.78 1.697-.95 2.696c-1.73.999-1.805 1.213-.949 2.696.857 1.483.781 1.697-.949 2.696-1.73.999-1.805 1.213-.95 2.696.857 1.483.782 1.696-.948 2.695s-1.806 1.213-.95 2.696c.857 1.483.781 1.697-.949 2.696-1.73.999-1.805 1.213-.95 2.696.857 1.483.782 1.697-.948 2.696-1.73.998-1.806 1.212-.95 2.695.856 1.483.781 1.697-.95 2.696-1.73.999-1.805 1.213-.948 2.696.856 1.483.78 1.697-.95 2.696-1.73.999-1.805 1.213-.949 2.696s.78 1.697-.95 2.695c-1.73 1-1.805 1.213-.948 2.696.856 1.483.78 1.697-.95 2.696-1.73.999-1.805 1.213-.949 2.696s.78 1.697-.95 2.696c-1.646.95-1.783 1.25-1.103 2.427.679 1.176.542 1.477-1.105 2.427-1.73 1-1.805 1.213-.95 2.696.857 1.483.782 1.697-.948 2.696s-1.806 1.213-.95 2.696c.857 1.483.781 1.697-.949 2.696-1.73.998-1.805 1.212-.95 2.695.857 1.483.782 1.697-.948 2.696-1.73.999-1.806 1.213-.95 2.696.856 1.483.781 1.697-.949 2.696s-1.805 1.213-.95 2.696c.879 1.52.811 1.68-1.217 2.85-2.028 1.171-2.096 1.33-1.218 2.851.856 1.483.781 1.697-.95 2.696-1.73.999-1.804 1.213-.948 2.696.856 1.483.78 1.697-.95 2.696-1.73.998-1.805 1.212-.949 2.695.856 1.483.781 1.697-.95 2.696-1.73 1-1.805 1.213-.948 2.696.856 1.483.78 1.697-.95 2.696-1.73.999-1.805 1.213-.949 2.696s.78 1.697-.95 2.695c-1.73 1-1.805 1.213-.949 2.696.857 1.483.781 1.697-.949 2.696s-1.805 1.213-.95 2.696.782 1.697-.948 2.696c-1.73.999-1.806 1.213-.95 2.696.857 1.482.781 1.696-.949 2.695-1.73 1-1.805 1.213-.95 2.696.857 1.483.782 1.697-.948 2.696-1.73.999-1.806 1.213-.95 2.696.856 1.483.781 1.697-.949 2.696-1.73.998-1.805 1.212-.95 2.695.857 1.483.781 1.697-.949 2.696-1.646.95-1.783 1.251-1.104 2.427.68 1.177.542 1.477-1.104 2.428-1.73.999-1.806 1.213-.95 2.696s.781 1.697-.949 2.695c-1.73 1-1.805 1.213-.949 2.696s.78 1.697-.95 2.696-1.805 1.213-.949 2.696.781 1.697-.949 2.696-1.953.957-2.809-.526-.78-1.697.95-2.696l1.878-1.085-3.565-6.175-3.565-6.174 1.88-1.085 1.88-1.085-2.79-4.833-2.79-4.832 1.878-1.085 1.88-1.085-3.72-6.444-3.72-6.443 1.879-1.085 1.88-1.085-2.79-4.832-2.79-4.833 1.878-1.085 1.88-1.085-3.72-6.443-3.72-6.443 1.879-1.085 1.88-1.085-2.636-4.564-2.635-4.564 1.88-1.085 1.879-1.085-3.72-6.443-3.72-6.443 1.88-1.085 1.878-1.085-2.79-4.833-2.79-4.832 1.88-1.085 1.879-1.085-3.72-6.444-3.72-6.443 1.88-1.085 1.878-1.085-2.79-4.832-2.79-4.833 1.88-1.085 1.879-1.085-3.565-6.174-3.565-6.175 1.88-1.085 1.879-1.085-2.79-4.833-2.79-4.832 1.879-1.085 1.88-1.085-3.72-6.443-3.72-6.443 1.878-1.085 1.88-1.085-2.79-4.833-2.79-4.832 1.879-1.085 1.88-1.085-3.566-6.175-3.565-6.175 2.148-1.24 2.148-1.24-2.79-4.832-2.79-4.833 1.879-1.085 1.88-1.085-3.72-6.443-3.72-6.443 1.879-1.085 1.879-1.085-2.79-4.833-2.79-4.832 1.88-1.085 1.878-1.085-3.72-6.443-3.72-6.443 1.88-1.085 1.879-1.085-2.635-4.564-2.635-4.564 1.88-1.085 1.878-1.085-3.72-6.444-3.72-6.443 1.88-1.085 1.879-1.085-2.79-4.832-2.79-4.833 1.88-1.085 1.878-1.085-3.72-6.443-3.72-6.443 1.88-1.085 1.88-1.085-2.79-4.832-2.79-4.833 1.878-1.085 1.88-1.085-3.565-6.175-3.565-6.174 1.879-1.085 1.88-1.085-2.79-4.833-2.79-4.832 1.878-1.085 1.88-1.085-3.72-6.443-3.72-6.444 1.879-1.085 1.88-1.085-2.79-4.832-2.79-4.833 1.879-1.085 1.879-1.085-3.565-6.174-3.565-6.175 1.88-1.085 1.878-1.085-2.79-4.833-2.79-4.832 1.88-1.085 1.879-1.085-3.72-6.443-3.72-6.443 1.88-1.085 1.878-1.085-2.79-4.833-2.79-4.832 1.88-1.085 1.879-1.085-3.72-6.443-3.72-6.444 1.88-1.085 1.879-1.085-2.635-4.564-2.635-4.564 1.879-1.085 1.88-1.085-3.72-6.443-3.72-6.443 1.878-1.085 1.88-1.085-2.79-4.833-2.79-4.832 1.879-1.085 1.88-1.085-3.72-6.443-3.72-6.443 1.878-1.085 1.88-1.085-2.79-4.833-2.79-4.832 1.88-1.085 1.878-1.085-3.565-6.175-3.565-6.175 1.88-1.085 1.879-1.085-2.79-4.832-2.79-4.833 1.88-1.085 1.878-1.085-3.72-6.443-3.72-6.443 1.88-1.085 1.879-1.085-2.79-4.832-2.79-4.833 1.88-1.085 1.879-1.085-3.565-6.175-3.565-6.174 1.879-1.085 1.88-1.085-2.79-4.833-2.79-4.832 1.878-1.085 1.88-1.085-1.86-3.222-1.86-3.221 2.147-1.24 2.148-1.24 2.79 4.832 2.79 4.832 1.88-1.085 1.879-1.085 2.635 4.564 2.635 4.564 1.879-1.085 1.88-1.085 3.72 6.444 3.72 6.443 1.878-1.085 1.88-1.085 2.79 4.832 2.79 4.833 1.88-1.085 1.878-1.085 3.72 6.443 3.72 6.443 1.88-1.085 1.879-1.085 2.79 4.832 2.79 4.833 1.88-1.085 1.878-1.085 3.565 6.175 3.565 6.174 1.88-1.085 1.879-1.085 2.79 4.833 2.79 4.832 1.88-1.085 1.879-1.085 3.72 6.444 3.72 6.443 1.879-1.085 1.88-1.085 2.79 4.832 2.79 4.833 1.878-1.085 1.88-1.085 3.72 6.443 3.72 6.443 1.879-1.085 1.88-1.085 2.634 4.564 2.635 4.564 1.88-1.085 1.879-1.085 3.72 6.443 3.72 6.443 1.879-1.085 1.88-1.085 2.79 4.833 2.79 4.832 1.878-1.085 1.88-1.085 3.72 6.443 3.72 6.444 1.88-1.085 1.878-1.085 2.79 4.832 2.79 4.833 1.88-1.085 1.879-1.085 3.565 6.174 3.565 6.175 1.88-1.085 1.878-1.085 2.79 4.832 2.79 4.833 1.88-1.085 1.879-1.085 3.72 6.443 3.72 6.443 1.88-1.085 1.879-1.085 2.79 4.833 2.79 4.832 1.879-1.085 1.88-1.085 3.564 6.175 3.565 6.175 1.88-1.085 1.879-1.085 2.79 4.832 2.79 4.832 1.879-1.084 1.88-1.085 3.72 6.443 3.72 6.443 1.878-1.085 1.88-1.085 2.79 4.832 2.79 4.833 1.88-1.085 1.878-1.085 3.72 6.443 3.72 6.443 1.88-1.085 1.879-1.085 2.635 4.564 2.635 4.564 1.88-1.085 1.878-1.085 3.72 6.443 3.72 6.444 1.88-1.085 1.879-1.085 2.79 4.832 2.79 4.832 1.88-1.085 1.878-1.085 3.72 6.444 3.72 6.443 1.88-1.085 1.88-1.085 2.79 4.832 2.79 4.833 2.147-1.24 2.148-1.24 3.565 6.175 3.565 6.174 1.879-1.085 1.88-1.085 2.79 4.833 2.79 4.832 1.878-1.085 1.88-1.085 3.72 6.443 3.72 6.444 1.879-1.085 1.88-1.085 2.79 4.832 2.79 4.832 1.878-1.085 1.88-1.085 3.565 6.175 3.565 6.175 1.88-1.085 1.878-1.085 2.79 4.832 2.79 4.833 1.88-1.085 1.879-1.085 3.72 6.443 3.72 6.443 1.88-1.085 1.878-1.085 2.79 4.833 2.79 4.832 1.88-1.085 1.879-1.085 3.72 6.443 3.72 6.444 1.88-1.085 1.878-1.085 2.635 4.563 2.635 4.564 1.88-1.085 1.88-1.085 3.72 6.444 3.72 6.443 1.878-1.085 1.88-1.085 2.79 4.832 2.79 4.833 1.879-1.085 1.88-1.085 3.72 6.443 3.72 6.443 1.878-1.085 1.88-1.085 2.79 4.833 2.79 4.832 1.879-1.085 1.88-1.085 2.634 4.564 2.635 4.564zM1704.2 2368.04c1.73.999 1.806 1.213.95 2.696-.857 1.483-.781 1.697.949 2.696s1.805 1.212.949 2.695-.781 1.697.95 2.696c1.646.95 1.782 1.251 1.103 2.427-.679 1.177-.542 1.477 1.105 2.428 1.73.999 1.805 1.213.949 2.696s-.78 1.697.95 2.695c1.73 1 1.805 1.213.949 2.696-.857 1.483-.781 1.697.949 2.696s1.805 1.213.95 2.696c-.857 1.483-.782 1.697.948 2.696s1.806 1.213.95 2.695c-.856 1.484-.781 1.698.949 2.696 1.73 1 1.805 1.213.95 2.696-.857 1.483-.782 1.697.949 2.696 1.73.999 1.805 1.213.949 2.696s-.781 1.697.949 2.696 1.806 1.212.95 2.695c-.857 1.483-.782 1.697.949 2.696s1.805 1.213.949 2.696-.781 1.697.95 2.696 1.805 1.213.948 2.696c-.856 1.483-.78 1.697.95 2.695 1.73 1 1.805 1.213.949 2.696s-.78 1.697.95 2.696c1.73.999 1.805 1.213.948 2.696-.878 1.521-.81 1.68 1.218 2.85s2.096 1.33 1.218 2.852c-.856 1.482-.78 1.696.95 2.695 1.73 1 1.805 1.213.948 2.696s-.78 1.697.95 2.696 1.805 1.213.95 2.696c-.857 1.483-.782 1.697.948 2.696s1.806 1.212.95 2.695-.781 1.697.949 2.696c1.73.999 1.805 1.213.95 2.696-.857 1.483-.782 1.697.948 2.696 1.647.95 1.784 1.25 1.105 2.427-.68 1.176-.543 1.477 1.104 2.427 1.73 1 1.806 1.213.95 2.696-.857 1.483-.782 1.697.948 2.696s1.806 1.213.95 2.696c-.856 1.483-.781 1.697.95 2.696 1.73.999 1.804 1.213.948 2.696-.856 1.482-.78 1.696.95 2.695 1.73 1 1.805 1.213.949 2.696s-.78 1.697.95 2.696 1.805 1.213.948 2.696c-.856 1.483-.78 1.697.95 2.696s1.805 1.212.949 2.695-.78 1.697.95 2.696 1.805 1.213.949 2.696c-.857 1.483-.781 1.697.949 2.696 1.73.999 1.805 1.213.95 2.696s-.782 1.697.948 2.695c1.73 1 1.806 1.213.95 2.696-.856 1.483-.781 1.697.949 2.696 1.73.999 1.805 1.213.95 2.696-.857 1.483-.782 1.697.948 2.696 1.73.998 1.806 1.212.95 2.695-.856 1.483-.781 1.697.949 2.696 1.73 1 1.806 1.213.95 2.696s-.782 1.697.949 2.696c1.73.999 1.805 1.213.949 2.696s-.781 1.697.95 2.695c1.73 1 1.805 1.213.948 2.696-.856 1.483-.78 1.697.95 2.696s1.805 1.213.949 2.696-.78 1.697.95 2.696c1.646.95 1.782 1.25 1.103 2.427-.679 1.176-.542 1.477 1.105 2.427 1.73 1 1.805 1.213.95 2.696-.857 1.483-.782 1.697.948 2.696 1.73.999 1.806 1.213.95 2.696-.857 1.483-.781 1.697.949 2.696 1.73.998 1.805 1.212.95 2.695-.857 1.483-.782 1.697.948 2.696l1.88 1.085 312.02-540.43 312.02-540.43 17.182 9.92 17.182 9.92-312.02 540.43-312.02 540.43 1.879 1.085c1.73 1 1.953.957 2.81-.526.855-1.483 1.078-1.524 2.808-.525 1.73.998 1.954.957 2.81-.526.856-1.483 1.079-1.525 2.81-.526 1.73.999 1.952.957 2.808-.526.856-1.483 1.08-1.525 2.81-.526 1.646.951 1.975.92 2.654-.257.679-1.176 1.008-1.208 2.654-.257 1.73.999 1.953.957 2.81-.526.856-1.483 1.079-1.525 2.809-.526 1.73.999 1.953.957 2.809-.526.856-1.483 1.08-1.525 2.81-.526s1.952.958 2.809-.525c.856-1.483 1.079-1.525 2.809-.526 1.73.999 1.953.957 2.81-.526s1.078-1.525 2.808-.526c1.73 1 1.953.957 2.81-.526.856-1.483 1.079-1.524 2.809-.525 1.73.998 1.953.957 2.81-.526.855-1.483 1.078-1.525 2.808-.526 1.73.999 1.953.957 2.81-.526.856-1.483 1.079-1.525 2.81-.526 1.73 1 1.952.957 2.808-.526s1.08-1.524 2.81-.525 1.953.957 2.809-.526c.856-1.483 1.079-1.525 2.81-.526s1.952.957 2.808-.526 1.08-1.524 2.81-.526 1.953.958 2.809-.525c.856-1.483 1.08-1.525 2.81-.526 1.73.999 1.952.957 2.808-.526.857-1.483 1.08-1.525 2.81-.526 1.73 1 1.953.957 2.809-.526.856-1.483 1.08-1.524 2.81-.525 1.73.998 1.952.957 2.809-.526.856-1.483 1.079-1.525 2.809-.526s1.953.957 2.81-.526c.855-1.483 1.078-1.524 2.808-.526 1.647.951 1.976.92 2.655-.257.679-1.176 1.007-1.208 2.654-.257 1.73.999 1.953.957 2.81-.526.855-1.483 1.078-1.525 2.808-.526 1.73.999 1.954.957 2.81-.526s1.079-1.524 2.81-.526 1.952.958 2.808-.525c.857-1.483 1.08-1.525 2.81-.526s1.953.957 2.809-.526 1.08-1.525 2.81-.526c1.73 1 1.952.957 2.808-.526.879-1.52 1.05-1.541 3.078-.37s2.2 1.15 3.078-.371c.856-1.483 1.08-1.525 2.81-.526 1.73.999 1.952.957 2.808-.526.857-1.483 1.08-1.524 2.81-.526 1.73 1 1.953.958 2.809-.525.856-1.483 1.08-1.525 2.81-.526s1.952.957 2.809-.526c.856-1.483 1.079-1.525 2.809-.526s1.953.957 2.81-.526c.855-1.483 1.078-1.524 2.808-.525 1.73.998 1.953.957 2.81-.526.856-1.483 1.079-1.525 2.809-.526 1.73.999 1.953.957 2.81-.526.855-1.483 1.078-1.525 2.808-.526 1.73 1 1.954.957 2.81-.526.856-1.482 1.079-1.524 2.81-.525s1.952.957 2.808-.526c.856-1.483 1.08-1.525 2.81-.526s1.953.957 2.809-.526c.856-1.483 1.079-1.524 2.81-.526 1.73 1 1.952.958 2.808-.525.857-1.483 1.08-1.525 2.81-.526 1.646.95 1.975.919 2.654-.258.68-1.176 1.008-1.208 2.654-.257 1.73.999 1.953.957 2.81-.526.856-1.483 1.079-1.524 2.809-.525s1.953.957 2.81-.526c.855-1.483 1.078-1.525 2.808-.526 1.73.999 1.953.957 2.81-.526.856-1.483 1.079-1.525 2.809-.526 1.73 1 1.805 1.213.95 2.696s-1.08 1.525-2.81.526l-1.88-1.085-3.564 6.175-3.565 6.175-1.88-1.085-1.879-1.085-2.79 4.832-2.79 4.832-1.88-1.085-1.879-1.085-3.72 6.444-3.72 6.443-1.879-1.085-1.879-1.085-2.79 4.832-2.79 4.833-1.88-1.085-1.879-1.085-3.72 6.443-3.72 6.443-1.879-1.085-1.88-1.085-2.634 4.564-2.635 4.564-1.88-1.085-1.879-1.085-3.72 6.443-3.72 6.444-1.879-1.085-1.88-1.085-2.79 4.832-2.79 4.832-1.879-1.085-1.879-1.085-3.72 6.444-3.72 6.443-1.88-1.085-1.878-1.085-2.79 4.832-2.79 4.833-1.88-1.085-1.879-1.085-3.565 6.175-3.565 6.174-1.88-1.085-1.878-1.085-2.79 4.833-2.79 4.832-1.88-1.085-1.879-1.085-3.72 6.443-3.72 6.444-1.88-1.085-1.879-1.085-2.79 4.832-2.79 4.832-1.879-1.085-1.879-1.085-3.565 6.175-3.565 6.175-2.148-1.24-2.148-1.24-2.79 4.832-2.79 4.833-1.879-1.085-1.88-1.085-3.72 6.443-3.72 6.443-1.878-1.085-1.88-1.085-2.79 4.833-2.79 4.832-1.879-1.085-1.88-1.085-3.72 6.443-3.72 6.444-1.879-1.085-1.879-1.085-2.635 4.563-2.635 4.564-1.879-1.085-1.88-1.085-3.72 6.444-3.72 6.443-1.879-1.085-1.879-1.085-2.79 4.832-2.79 4.833-1.88-1.085-1.878-1.085-3.72 6.443-3.72 6.443-1.88-1.085-1.879-1.085-2.79 4.833-2.79 4.832-1.88-1.085-1.879-1.085-3.565 6.175-3.565 6.175-1.879-1.085-1.879-1.085-2.79 4.832-2.79 4.832-1.88-1.085-1.879-1.085-3.72 6.444-3.72 6.443-1.879-1.085-1.88-1.085-2.79 4.832-2.79 4.833-1.878-1.085-1.88-1.085-3.565 6.175-3.565 6.174-1.879-1.085-1.88-1.085-2.79 4.833-2.79 4.832-1.879-1.085-1.879-1.085-3.72 6.443-3.72 6.444-1.88-1.085-1.878-1.085-2.79 4.832-2.79 4.832-1.88-1.085-1.879-1.085-3.72 6.444-3.72 6.443-1.88-1.085-1.878-1.085-2.635 4.564-2.635 4.564-1.88-1.085-1.879-1.085-3.72 6.443-3.72 6.443-1.88-1.085-1.879-1.085-2.79 4.833-2.79 4.832-1.879-1.085-1.88-1.085-3.72 6.443-3.72 6.443-1.878-1.085-1.88-1.085-2.79 4.833-2.79 4.832-1.879-1.085-1.88-1.085-3.564 6.175-3.565 6.175-1.88-1.085-1.879-1.085-2.79 4.832-2.79 4.833-1.879-1.085-1.88-1.085-3.72 6.443-3.72 6.443-1.879-1.085-1.879-1.085-2.79 4.833-2.79 4.832-1.88-1.085-1.878-1.085-3.565 6.175-3.565 6.175-1.88-1.085-1.879-1.085-2.79 4.832-2.79 4.832-1.88-1.085-1.879-1.085-1.86 3.222-1.86 3.222-2.147-1.24-2.148-1.24 2.79-4.833 2.79-4.832-1.88-1.085-1.879-1.085 2.635-4.564 2.635-4.564-1.879-1.085-1.88-1.085 3.72-6.443 3.72-6.444-1.878-1.085-1.88-1.085 2.79-4.832 2.79-4.832-1.879-1.085-1.88-1.085 3.72-6.444 3.72-6.443-1.879-1.085-1.879-1.085 2.79-4.832 2.79-4.833-1.879-1.085-1.88-1.085 3.566-6.174 3.565-6.175-1.88-1.085-1.879-1.085 2.79-4.833 2.79-4.832-1.88-1.085-1.878-1.085 3.72-6.443 3.72-6.444-1.88-1.085-1.879-1.085 2.79-4.832 2.79-4.832-1.88-1.085-1.879-1.085 3.72-6.444 3.72-6.443-1.879-1.085-1.879-1.085 2.635-4.564 2.635-4.564-1.88-1.085-1.879-1.085 3.72-6.443 3.72-6.443-1.879-1.085-1.88-1.085 2.79-4.833 2.79-4.832-1.878-1.085-1.88-1.085 3.72-6.443 3.72-6.443-1.879-1.085-1.88-1.085 2.79-4.833 2.79-4.832-1.879-1.085-1.879-1.085 3.565-6.175 3.565-6.175-1.879-1.085-1.88-1.085 2.79-4.832 2.79-4.833-1.879-1.085-1.879-1.085 3.72-6.443 3.72-6.443-1.88-1.085-1.879-1.085 2.79-4.833 2.79-4.832-1.879-1.085-1.879-1.085 3.565-6.175 3.565-6.175-1.88-1.085-1.879-1.085 2.79-4.832 2.79-4.832-1.879-1.085-1.88-1.085 3.72-6.444 3.72-6.443-1.878-1.085-1.88-1.085 2.79-4.832 2.79-4.833-1.879-1.085-1.88-1.085 3.72-6.443 3.72-6.443-1.879-1.085-1.879-1.085 2.635-4.564 2.635-4.564-1.879-1.085-1.88-1.085 3.72-6.443 3.72-6.444-1.879-1.085-1.879-1.085 2.79-4.832 2.79-4.832-1.88-1.085-1.878-1.085 3.72-6.444 3.72-6.443-1.88-1.085-1.879-1.085 2.79-4.832 2.79-4.833-2.148-1.24-2.148-1.24 3.565-6.174 3.565-6.175-1.879-1.085-1.879-1.085 2.79-4.833 2.79-4.832-1.88-1.085-1.879-1.085 3.72-6.443 3.72-6.443-1.879-1.085-1.88-1.085 2.79-4.833 2.79-4.832-1.878-1.085-1.88-1.085 3.565-6.175 3.565-6.175-1.879-1.085-1.88-1.085 2.79-4.832 2.79-4.833-1.878-1.085-1.88-1.085 3.72-6.443 3.72-6.443-1.879-1.085-1.88-1.085 2.79-4.833 2.79-4.832-1.879-1.085-1.879-1.085 3.72-6.443 3.72-6.443-1.88-1.085-1.878-1.085 2.635-4.564 2.635-4.564-1.88-1.085-1.879-1.085 3.72-6.444 3.72-6.443-1.88-1.085-1.879-1.085 2.79-4.832 2.79-4.833-1.879-1.085-1.879-1.085 3.72-6.443 3.72-6.443-1.88-1.085-1.879-1.085 2.79-4.833 2.79-4.832-1.879-1.085-1.88-1.085 2.636-4.564 2.635-4.564z"/></svg>