<svg width="181.373" height="98.707" viewBox="0 0 136.03 74.03" xmlns="http://www.w3.org/2000/svg" xmlns:xlink="http://www.w3.org/1999/xlink"><defs><symbol id="a" overflow="visible"><path d="M9.633-4.406c0-2.653-2.016-4.758-4.445-4.758S.742-7.047.742-4.406C.742-1.77 2.77.285 5.188.285S9.633-1.77 9.633-4.406zm-1.324-.196c0 3.356-1.809 4.497-3.121 4.497S2.066-1.246 2.066-4.602c0-3.171 1.86-4.199 3.122-4.199s3.12 1.028 3.12 4.2z"/></symbol><symbol id="b" overflow="visible"><path d="M9.84-8.477v-.402c-.453.04-.832.04-1.274.04l-1.468-.04v.402c.468 0 .714.207.714.508 0 .156-.039.223-.14.375l-2.227 3.5L3.004-7.89c-.078-.129-.117-.195-.117-.261 0-.313.48-.325.882-.325v-.402c-.53.04-1.324.04-1.882.04l-1.72-.04v.402H.39c.782 0 .961.106 1.196.47l2.86 4.456v2.524c0 .48-.024.625-1.028.625H3.12V0c.61-.04 1.262-.04 1.883-.04.625 0 1.273 0 1.898.04v-.402h-.297c-.988 0-1.027-.145-1.027-.614V-3.55l2.574-4.027c.258-.418.66-.887 1.688-.899z"/></symbol><symbol id="c" overflow="visible"><path d="M8.71-2.367c0-1.168-1.132-2.117-2.573-2.274 1.285-.261 2.195-1.078 2.195-2.043 0-1.14-1.246-2.195-2.965-2.195H.531v.402h.301c1 0 1.027.145 1.027.625v6.825c0 .48-.027.625-1.027.625h-.3V0h5.202c1.754 0 2.977-1.156 2.977-2.367zM7.087-6.684c0 1.004-.871 1.899-2.094 1.899H2.95v-3.156c0-.446.027-.536.64-.536h1.688c1.274 0 1.809 1.016 1.809 1.793zm.336 4.293c0 1-.777 1.989-2.117 1.989H3.59c-.613 0-.64-.09-.64-.535v-3.524h2.456c1.508 0 2.016 1.277 2.016 2.07z"/></symbol><symbol id="f" overflow="visible"><path d="M5.617 0v-.402H5.2c-1.207 0-1.246-.157-1.246-.637v-7.27c0-.324-.015-.347-.34-.347-.804.832-2 .832-2.402.832v.402c.246 0 1.04 0 1.738-.34v6.723c0 .48-.039.637-1.246.637h-.418V0c.469-.039 1.625-.039 2.16-.039.532 0 1.704 0 2.172.04z"/></symbol><symbol id="d" overflow="visible"><path d="M6.215-4.836c0 .348-.188.52-.559.52-.21 0-.398-.11-.566-.332a34.873 34.873 0 0 1-.442-.614 1.122 1.122 0 0 0-.828-.332c-.383 0-.71.164-.984.485-.262.304-.39.652-.39 1.039 0 .449.23.676.69.676.094 0 .235-.012.426-.028a5.97 5.97 0 0 1 .442-.023c.3 0 .453.117.453.355 0 .301-.191.45-.574.45-.121 0-.305-.024-.547-.079a2.926 2.926 0 0 0-.555-.074c-.383 0-.691.164-.933.496-.215.297-.325.64-.325 1.035 0 .676.403 1.016 1.207 1.016.512 0 .946-.148 1.309-.441.168-.137.398-.41.691-.813.211-.289.391-.437.543-.437.211 0 .32.113.32.336 0 .175-.09.375-.261.597C4.754-.258 3.84.113 2.59.113 1.012.113.223-.379.223-1.363c0-.488.242-.899.73-1.235.398-.27.863-.445 1.402-.527v-.047a1.393 1.393 0 0 1-.75-.344.988.988 0 0 1-.316-.75c0-.562.3-1 .902-1.312.485-.25 1.04-.375 1.656-.375.508 0 .989.074 1.442.223.617.203.926.5.926.894z"/></symbol><symbol id="e" overflow="visible"><path d="M7.516-2.977H.856v-.73h6.66z"/></symbol></defs><g transform="translate(-37.567 .015)"><path d="M37.582 16h136v1h-136z" stroke="#000" stroke-miterlimit="10" stroke-width=".03"/><path d="M61.582 0v74h-1V0z" stroke="#000" stroke-miterlimit="10" stroke-width=".03"/><use x="76.583" y="9.5" width="100%" height="100%" xlink:href="#a"/><use x="118.584" y="9.5" width="100%" height="100%" xlink:href="#b"/><use x="161.083" y="9.5" width="100%" height="100%" xlink:href="#c"/><use x="37.583" y="30.5" width="100%" height="100%" xlink:href="#a"/><use x="78.583" y="30.5" width="100%" height="100%" xlink:href="#d"/><use x="115.584" y="30.5" width="100%" height="100%" xlink:href="#e"/><use x="124.584" y="30.5" width="100%" height="100%" xlink:href="#f"/><use x="162.083" y="30.5" width="100%" height="100%" xlink:href="#f"/><use x="37.583" y="51.5" width="100%" height="100%" xlink:href="#b"/><use x="78.083" y="51.5" width="100%" height="100%" xlink:href="#f"/><use x="120.584" y="51.5" width="100%" height="100%" xlink:href="#d"/><use x="157.583" y="51.5" width="100%" height="100%" xlink:href="#e"/><use x="166.583" y="51.5" width="100%" height="100%" xlink:href="#f"/><use x="38.083" y="72.5" width="100%" height="100%" xlink:href="#c"/><use x="73.583" y="72.5" width="100%" height="100%" xlink:href="#e"/><use x="82.583" y="72.5" width="100%" height="100%" xlink:href="#f"/><use x="120.084" y="72.5" width="100%" height="100%" xlink:href="#f"/><use x="162.583" y="72.5" width="100%" height="100%" xlink:href="#d"/></g></svg>